<?xml version="1.0" encoding="UTF-8" standalone="no"?>
<svg
   width="297.33502"
   height="450"
   viewBox="0 0 297.33502 450"
   fill="none"
   version="1.1"
   id="svg1099"
   sodipodi:docname="kridlo.svg"
   inkscape:version="1.1.2 (b8e25be833, 2022-02-05)"
   xmlns:inkscape="http://www.inkscape.org/namespaces/inkscape"
   xmlns:sodipodi="http://sodipodi.sourceforge.net/DTD/sodipodi-0.dtd"
   xmlns="http://www.w3.org/2000/svg"
   xmlns:svg="http://www.w3.org/2000/svg">
  <defs
     id="defs1103" />
  <sodipodi:namedview
     id="namedview1101"
     pagecolor="#ffffff"
     bordercolor="#666666"
     borderopacity="1.0"
     inkscape:pageshadow="2"
     inkscape:pageopacity="0.0"
     inkscape:pagecheckerboard="0"
     showgrid="false"
     fit-margin-top="0"
     fit-margin-left="0"
     fit-margin-right="0"
     fit-margin-bottom="0"
     inkscape:zoom="6.9846154"
     inkscape:cx="48.75"
     inkscape:cy="216.04626"
     inkscape:window-width="3840"
     inkscape:window-height="2054"
     inkscape:window-x="-11"
     inkscape:window-y="-11"
     inkscape:window-maximized="1"
     inkscape:current-layer="svg1099" />
  <g
     id="g1378"
     transform="scale(7.2473971)">
    <path
       d="m 22.425906,14.605935 c -22.76854011,18.9387 -22.16764011,18.0599 -21.2571201,32.6003 0.69148,10.3906 0.61883,12.0422 -0.65584001,13.6304 -1.32565,1.6518 0.14224,1.5139 1.85762001,-0.2333 1.61884,-1.5618 2.00664,-2.8905 3.33514,-11.1801 1.6924,-11.0845 1.636,-11.0791 16.0917001,-20.8958 11.7241,-7.974 14.747,-10.96 17.0628,-17.2277 1.4565,-3.8961902 2.5868,-10.0525102 2.0148,-11.29102976 -0.1403,-0.2805174 -8.4115,6.25304956 -18.4491,14.59722976 z"
       fill="#0055B3"
       id="path1089"
       style="fill:#e8cc48" />
    <path
       d="m 34.685606,23.225435 c -18.759,11.5711 -22.1773,13.8656 -23.2788,15.8263 -0.6286,1.0457 -0.98,2.0654 -0.8529,2.2276 0.177,0.0994 4.7062,-1.0806 10.0289,-2.7415 11.244,-3.4941 14.4838,-5.3075 16.8978,-9.3649 1.4571,-2.3423 3.6779,-9.0514 3.1967,-9.4124 -0.1162,-0.0471 -2.7681,1.4789 -5.9917,3.4649 z"
       fill="#0055B3"
       id="path1091"
       style="fill:#ecd454" />
    <path
       d="m 24.846206,40.234135 c -14.1808,4.1012 -18.6765001,6.8872 -11.4919,7.09 17.3764,0.5284 22.6195,-1.1798 24.9078,-8.0804 l 0.9192,-2.72 -1.5657,0.2146 c -0.9252,0.1545 -6.653,1.7056 -12.7694,3.4958 z"
       fill="#0055B3"
       id="path1093"
       style="fill:#f4ec6c" />
    <path
       d="m 8.6097059,50.260435 c -0.8609,0.6084 -0.5618,0.7385 9.1836001,3.0932 5.1101,1.2605 6.3858,1.4044 8.6312,0.8769 2.4112,-0.5957 6.4359,-3.5585 5.6278,-4.221 -0.4325,-0.3286 -18.1408,-0.722 -20.7001,-0.4815 -1.0806,0.1015 -2.3121001,0.4282 -2.7425001,0.7324 z"
       fill="#0055B3"
       id="path1095"
       style="fill:#f8f478" />
    <path
       d="m 7.7831059,54.564835 c 3.9591001,3.3829 9.6179001,6.9695 11.6734001,7.382 2.511,0.4908 5.4588,-0.3312 5.346,-1.5319 -0.0677,-0.7204 -15.1822001,-6.5678 -16.5149001,-6.4426 -0.6663,0.0626 -0.8715,0.2636 -0.5045,0.5925 z"
       fill="#0055B3"
       id="path1097"
       style="fill:#fcfc80" />
  </g>
</svg>
