<svg width="105" height="31" viewBox="0 0 700 206" fill="none" xmlns="http://www.w3.org/2000/svg">
<path d="M189.111 189.24L188.911 184.36L204.791 168H209.351L197.071 180.96L194.831 183.44L189.111 189.24ZM185.591 196V168H189.591V196H185.591ZM205.431 196L193.951 182.64L196.631 179.68L210.111 196H205.431ZM233.965 196.32C231.832 196.32 229.845 195.96 228.005 195.24C226.192 194.52 224.618 193.52 223.285 192.24C221.952 190.933 220.912 189.413 220.165 187.68C219.418 185.947 219.045 184.053 219.045 182C219.045 179.947 219.418 178.053 220.165 176.32C220.912 174.587 221.952 173.08 223.285 171.8C224.618 170.493 226.192 169.48 228.005 168.76C229.818 168.04 231.805 167.68 233.965 167.68C236.098 167.68 238.058 168.04 239.845 168.76C241.658 169.453 243.232 170.453 244.565 171.76C245.925 173.04 246.965 174.547 247.685 176.28C248.432 178.013 248.805 179.92 248.805 182C248.805 184.08 248.432 185.987 247.685 187.72C246.965 189.453 245.925 190.973 244.565 192.28C243.232 193.56 241.658 194.56 239.845 195.28C238.058 195.973 236.098 196.32 233.965 196.32ZM233.965 192.76C235.512 192.76 236.938 192.493 238.245 191.96C239.578 191.427 240.725 190.68 241.685 189.72C242.672 188.733 243.432 187.587 243.965 186.28C244.525 184.973 244.805 183.547 244.805 182C244.805 180.453 244.525 179.027 243.965 177.72C243.432 176.413 242.672 175.28 241.685 174.32C240.725 173.333 239.578 172.573 238.245 172.04C236.938 171.507 235.512 171.24 233.965 171.24C232.392 171.24 230.938 171.507 229.605 172.04C228.298 172.573 227.152 173.333 226.165 174.32C225.178 175.28 224.405 176.413 223.845 177.72C223.312 179.027 223.045 180.453 223.045 182C223.045 183.547 223.312 184.973 223.845 186.28C224.405 187.587 225.178 188.733 226.165 189.72C227.152 190.68 228.298 191.427 229.605 191.96C230.938 192.493 232.392 192.76 233.965 192.76ZM271.079 196.32C268.945 196.32 266.905 196 264.959 195.36C263.012 194.693 261.479 193.84 260.359 192.8L261.839 189.68C262.905 190.613 264.265 191.387 265.919 192C267.572 192.613 269.292 192.92 271.079 192.92C272.705 192.92 274.025 192.733 275.039 192.36C276.052 191.987 276.799 191.48 277.279 190.84C277.759 190.173 277.999 189.427 277.999 188.6C277.999 187.64 277.679 186.867 277.039 186.28C276.425 185.693 275.612 185.227 274.599 184.88C273.612 184.507 272.519 184.187 271.319 183.92C270.119 183.653 268.905 183.347 267.679 183C266.479 182.627 265.372 182.16 264.359 181.6C263.372 181.04 262.572 180.293 261.959 179.36C261.345 178.4 261.039 177.173 261.039 175.68C261.039 174.24 261.412 172.92 262.159 171.72C262.932 170.493 264.105 169.52 265.679 168.8C267.279 168.053 269.305 167.68 271.759 167.68C273.385 167.68 274.999 167.893 276.599 168.32C278.199 168.747 279.585 169.36 280.759 170.16L279.439 173.36C278.239 172.56 276.972 171.987 275.639 171.64C274.305 171.267 273.012 171.08 271.759 171.08C270.185 171.08 268.892 171.28 267.879 171.68C266.865 172.08 266.119 172.613 265.639 173.28C265.185 173.947 264.959 174.693 264.959 175.52C264.959 176.507 265.265 177.293 265.879 177.88C266.519 178.467 267.332 178.933 268.319 179.28C269.332 179.627 270.439 179.947 271.639 180.24C272.839 180.507 274.039 180.813 275.239 181.16C276.465 181.507 277.572 181.96 278.559 182.52C279.572 183.08 280.385 183.827 280.999 184.76C281.612 185.693 281.919 186.893 281.919 188.36C281.919 189.773 281.532 191.093 280.759 192.32C279.985 193.52 278.785 194.493 277.159 195.24C275.559 195.96 273.532 196.32 271.079 196.32ZM269.759 165.72L264.439 160.52H267.919L273.199 164.88H269.999L275.279 160.52H278.759L273.439 165.72H269.759ZM295.763 196V168H299.763V196H295.763ZM328.665 196.32C326.532 196.32 324.559 195.973 322.745 195.28C320.959 194.56 319.399 193.56 318.065 192.28C316.759 190.973 315.732 189.453 314.985 187.72C314.239 185.987 313.865 184.08 313.865 182C313.865 179.92 314.239 178.013 314.985 176.28C315.732 174.547 316.772 173.04 318.105 171.76C319.439 170.453 320.999 169.453 322.785 168.76C324.599 168.04 326.572 167.68 328.705 167.68C330.865 167.68 332.852 168.053 334.665 168.8C336.505 169.52 338.065 170.6 339.345 172.04L336.745 174.56C335.679 173.44 334.479 172.613 333.145 172.08C331.812 171.52 330.385 171.24 328.865 171.24C327.292 171.24 325.825 171.507 324.465 172.04C323.132 172.573 321.972 173.32 320.985 174.28C319.999 175.24 319.225 176.387 318.665 177.72C318.132 179.027 317.865 180.453 317.865 182C317.865 183.547 318.132 184.987 318.665 186.32C319.225 187.627 319.999 188.76 320.985 189.72C321.972 190.68 323.132 191.427 324.465 191.96C325.825 192.493 327.292 192.76 328.865 192.76C330.385 192.76 331.812 192.493 333.145 191.96C334.479 191.4 335.679 190.547 336.745 189.4L339.345 191.92C338.065 193.36 336.505 194.453 334.665 195.2C332.852 195.947 330.852 196.32 328.665 196.32ZM356.692 180.08H371.092V183.48H356.692V180.08ZM357.052 192.52H373.372V196H353.052V168H372.812V171.48H357.052V192.52ZM386.159 201.92L388.159 193.84L388.679 196.16C387.906 196.16 387.252 195.92 386.719 195.44C386.212 194.96 385.959 194.307 385.959 193.48C385.959 192.68 386.212 192.027 386.719 191.52C387.252 191.013 387.892 190.76 388.639 190.76C389.412 190.76 390.039 191.027 390.519 191.56C390.999 192.067 391.239 192.707 391.239 193.48C391.239 193.747 391.212 194.013 391.159 194.28C391.132 194.52 391.066 194.813 390.959 195.16C390.879 195.48 390.746 195.88 390.559 196.36L388.679 201.92H386.159ZM419.804 196L432.484 168H436.444L449.164 196H444.964L433.644 170.24H435.244L423.924 196H419.804ZM425.204 189L426.284 185.8H442.044L443.204 189H425.204ZM463.029 196.24C462.282 196.24 461.642 195.987 461.109 195.48C460.575 194.947 460.309 194.28 460.309 193.48C460.309 192.68 460.575 192.027 461.109 191.52C461.642 191.013 462.282 190.76 463.029 190.76C463.749 190.76 464.362 191.013 464.869 191.52C465.402 192.027 465.669 192.68 465.669 193.48C465.669 194.28 465.402 194.947 464.869 195.48C464.362 195.987 463.749 196.24 463.029 196.24ZM488.282 196.32C486.149 196.32 484.109 196 482.162 195.36C480.215 194.693 478.682 193.84 477.562 192.8L479.042 189.68C480.109 190.613 481.469 191.387 483.122 192C484.775 192.613 486.495 192.92 488.282 192.92C489.909 192.92 491.229 192.733 492.242 192.36C493.255 191.987 494.002 191.48 494.482 190.84C494.962 190.173 495.202 189.427 495.202 188.6C495.202 187.64 494.882 186.867 494.242 186.28C493.629 185.693 492.815 185.227 491.802 184.88C490.815 184.507 489.722 184.187 488.522 183.92C487.322 183.653 486.109 183.347 484.882 183C483.682 182.627 482.575 182.16 481.562 181.6C480.575 181.04 479.775 180.293 479.162 179.36C478.549 178.4 478.242 177.173 478.242 175.68C478.242 174.24 478.615 172.92 479.362 171.72C480.135 170.493 481.309 169.52 482.882 168.8C484.482 168.053 486.509 167.68 488.962 167.68C490.589 167.68 492.202 167.893 493.802 168.32C495.402 168.747 496.789 169.36 497.962 170.16L496.642 173.36C495.442 172.56 494.175 171.987 492.842 171.64C491.509 171.267 490.215 171.08 488.962 171.08C487.389 171.08 486.095 171.28 485.082 171.68C484.069 172.08 483.322 172.613 482.842 173.28C482.389 173.947 482.162 174.693 482.162 175.52C482.162 176.507 482.469 177.293 483.082 177.88C483.722 178.467 484.535 178.933 485.522 179.28C486.535 179.627 487.642 179.947 488.842 180.24C490.042 180.507 491.242 180.813 492.442 181.16C493.669 181.507 494.775 181.96 495.762 182.52C496.775 183.08 497.589 183.827 498.202 184.76C498.815 185.693 499.122 186.893 499.122 188.36C499.122 189.773 498.735 191.093 497.962 192.32C497.189 193.52 495.989 194.493 494.362 195.24C492.762 195.96 490.735 196.32 488.282 196.32ZM514.107 196.24C513.36 196.24 512.72 195.987 512.187 195.48C511.654 194.947 511.387 194.28 511.387 193.48C511.387 192.68 511.654 192.027 512.187 191.52C512.72 191.013 513.36 190.76 514.107 190.76C514.827 190.76 515.44 191.013 515.947 191.52C516.48 192.027 516.747 192.68 516.747 193.48C516.747 194.28 516.48 194.947 515.947 195.48C515.44 195.987 514.827 196.24 514.107 196.24Z" fill="#F3F3F3"/>
<path d="M8.33329 142V44H59.9933C66.4333 44 72.1266 45.4 77.0733 48.2C82.1133 50.9067 86.08 54.64 88.9733 59.4C91.8666 64.16 93.3133 69.62 93.3133 75.78C93.3133 81.66 91.8666 86.98 88.9733 91.74C86.08 96.4067 82.1133 100.093 77.0733 102.8C72.0333 105.507 66.34 106.86 59.9933 106.86H32.4133V142H8.33329ZM32.4133 86.98H57.1933C60.74 86.98 63.5866 85.9533 65.7333 83.9C67.88 81.8467 68.9533 79.1867 68.9533 75.92C68.9533 72.56 67.88 69.8533 65.7333 67.8C63.5866 65.6533 60.74 64.58 57.1933 64.58H32.4133V86.98ZM108.477 142V44H158.597C165.317 44 171.29 45.3533 176.517 48.06C181.744 50.6733 185.804 54.36 188.697 59.12C191.684 63.7867 193.177 69.1533 193.177 75.22C193.177 81.38 191.497 86.8867 188.137 91.74C184.777 96.5933 180.344 100.28 174.837 102.8L196.257 142H169.377L150.897 106.3H132.557V142H108.477ZM132.557 86.7H156.357C160.09 86.7 163.077 85.6733 165.317 83.62C167.65 81.5667 168.817 78.9067 168.817 75.64C168.817 72.3733 167.65 69.7133 165.317 67.66C163.077 65.6067 160.09 64.58 156.357 64.58H132.557V86.7ZM257.207 143.54C249.834 143.54 242.974 142.28 236.627 139.76C230.281 137.147 224.727 133.553 219.967 128.98C215.207 124.313 211.474 118.947 208.767 112.88C206.154 106.72 204.847 100.093 204.847 93C204.847 85.9067 206.154 79.3267 208.767 73.26C211.474 67.1 215.207 61.7333 219.967 57.16C224.727 52.4933 230.281 48.9 236.627 46.38C242.974 43.7667 249.834 42.46 257.207 42.46C264.581 42.46 271.441 43.7667 277.787 46.38C284.134 48.9 289.687 52.4933 294.447 57.16C299.207 61.7333 302.894 67.1 305.507 73.26C308.214 79.3267 309.567 85.9067 309.567 93C309.567 100.093 308.214 106.72 305.507 112.88C302.894 118.947 299.207 124.313 294.447 128.98C289.687 133.553 284.134 137.147 277.787 139.76C271.441 142.28 264.581 143.54 257.207 143.54ZM257.207 121.42C261.127 121.42 264.767 120.72 268.127 119.32C271.487 117.827 274.381 115.82 276.807 113.3C279.327 110.78 281.287 107.793 282.687 104.34C284.087 100.793 284.787 97.0133 284.787 93C284.787 88.8933 284.087 85.1133 282.687 81.66C281.287 78.2067 279.327 75.22 276.807 72.7C274.381 70.18 271.487 68.22 268.127 66.82C264.767 65.3267 261.127 64.58 257.207 64.58C253.287 64.58 249.647 65.3267 246.287 66.82C242.927 68.22 239.987 70.18 237.467 72.7C235.041 75.22 233.127 78.2067 231.727 81.66C230.327 85.1133 229.627 88.8933 229.627 93C229.627 97.0133 230.327 100.793 231.727 104.34C233.127 107.793 235.041 110.78 237.467 113.3C239.987 115.82 242.927 117.827 246.287 119.32C249.647 120.72 253.287 121.42 257.207 121.42ZM360.171 143.4C352.331 143.4 344.771 141.86 337.491 138.78C330.211 135.7 323.771 131.36 318.171 125.76L327.131 115.4C332.451 120.627 337.864 124.5 343.371 127.02C348.971 129.54 354.804 130.8 360.871 130.8C365.631 130.8 369.784 130.147 373.331 128.84C376.971 127.44 379.771 125.48 381.731 122.96C383.691 120.44 384.671 117.593 384.671 114.42C384.671 110.033 383.131 106.673 380.051 104.34C376.971 102.007 371.884 100.233 364.791 99.02L348.411 96.36C339.451 94.7733 332.731 91.88 328.251 87.68C323.864 83.48 321.671 77.88 321.671 70.88C321.671 65.28 323.164 60.38 326.151 56.18C329.137 51.8867 333.337 48.5733 338.751 46.24C344.257 43.9067 350.604 42.74 357.791 42.74C364.884 42.74 371.837 43.9067 378.651 46.24C385.557 48.48 391.764 51.7467 397.271 56.04L389.151 67.24C378.604 59.2133 367.917 55.2 357.091 55.2C352.797 55.2 349.064 55.8067 345.891 57.02C342.717 58.2333 340.244 59.96 338.471 62.2C336.697 64.3467 335.811 66.8667 335.811 69.76C335.811 73.7733 337.164 76.8533 339.871 79C342.577 81.0533 347.057 82.5467 353.311 83.48L369.131 86.14C379.491 87.82 387.097 90.8533 391.951 95.24C396.804 99.6267 399.231 105.647 399.231 113.3C399.231 119.273 397.597 124.547 394.331 129.12C391.064 133.6 386.491 137.1 380.611 139.62C374.731 142.14 367.917 143.4 360.171 143.4ZM462.41 143.54C455.317 143.54 448.69 142.28 442.53 139.76C436.37 137.147 430.91 133.553 426.15 128.98C421.484 124.313 417.844 118.947 415.23 112.88C412.71 106.72 411.45 100.093 411.45 93C411.45 85.9067 412.71 79.3267 415.23 73.26C417.844 67.1 421.484 61.7333 426.15 57.16C430.91 52.4933 436.37 48.9 442.53 46.38C448.69 43.7667 455.317 42.46 462.41 42.46C469.504 42.46 476.13 43.7667 482.29 46.38C488.544 48.9 494.004 52.4933 498.67 57.16C503.337 61.7333 506.977 67.1 509.59 73.26C512.204 79.3267 513.51 85.9067 513.51 93C513.51 100.093 512.204 106.72 509.59 112.88C506.977 118.947 503.337 124.313 498.67 128.98C494.004 133.553 488.544 137.147 482.29 139.76C476.13 142.28 469.504 143.54 462.41 143.54ZM462.55 129.96C467.59 129.96 472.257 129.027 476.55 127.16C480.937 125.293 484.764 122.727 488.03 119.46C491.297 116.1 493.864 112.18 495.73 107.7C497.597 103.127 498.53 98.2267 498.53 93C498.53 87.68 497.597 82.78 495.73 78.3C493.864 73.82 491.297 69.9467 488.03 66.68C484.764 63.32 480.937 60.7067 476.55 58.84C472.257 56.9733 467.59 56.04 462.55 56.04C457.417 56.04 452.657 56.9733 448.27 58.84C443.884 60.7067 440.057 63.32 436.79 66.68C433.524 69.9467 430.957 73.82 429.09 78.3C427.317 82.78 426.43 87.68 426.43 93C426.43 98.2267 427.317 103.127 429.09 107.7C430.957 112.18 433.524 116.1 436.79 119.46C440.057 122.727 443.884 125.293 448.27 127.16C452.657 129.027 457.417 129.96 462.55 129.96ZM531.79 142V44H604.31V56.88H546.49V86.98H584.57V99.44H546.49V142H531.79ZM648.286 142V57.02H613.846V44H697.426V57.02H662.986V142H648.286Z" fill="#F3F3F3"/>
</svg>

