<svg
   width="134"
   height="31"
   viewBox="0 0 35.454163 8.202083"
   version="1.1"
   id="svg5"
   inkscape:version="1.1.2 (b8e25be833, 2022-02-05)"
   sodipodi:docname="logo.svg"
   xmlns:inkscape="http://www.inkscape.org/namespaces/inkscape"
   xmlns:sodipodi="http://sodipodi.sourceforge.net/DTD/sodipodi-0.dtd"
   xmlns="http://www.w3.org/2000/svg"
   xmlns:svg="http://www.w3.org/2000/svg">
  <sodipodi:namedview
     id="namedview7"
     pagecolor="#ffffff"
     bordercolor="#666666"
     borderopacity="1.0"
     inkscape:pageshadow="2"
     inkscape:pageopacity="0.0"
     inkscape:pagecheckerboard="0"
     inkscape:document-units="mm"
     showgrid="false"
     fit-margin-top="0"
     fit-margin-left="0"
     fit-margin-right="0"
     fit-margin-bottom="0"
     inkscape:zoom="13.285575"
     inkscape:cx="51.371506"
     inkscape:cy="32.290661"
     inkscape:window-width="3840"
     inkscape:window-height="2054"
     inkscape:window-x="-11"
     inkscape:window-y="-11"
     inkscape:window-maximized="1"
     inkscape:current-layer="layer1"
     units="px" />
  <defs
     id="defs2" />
  <g
     inkscape:label="Layer 1"
     inkscape:groupmode="layer"
     id="layer1"
     transform="translate(172.18069,-128.23917)">
    <g
       style="fill:#404040"
       id="g836"
       transform="matrix(0.0514505,0,0,0.05143662,-172.60944,126.05517)"
       inkscape:export-filename="C:\Users\slavo\Downloads\logo_prosoft.png"
       inkscape:export-xdpi="205.95"
       inkscape:export-ydpi="205.95">
      <path
         d="m 189.111,189.24 -0.2,-4.88 15.88,-16.36 h 4.56 l -12.28,12.96 -2.24,2.48 z m -3.52,6.76 v -28 h 4 v 28 z m 19.84,0 -11.48,-13.36 2.68,-2.96 13.48,16.32 z m 28.534,0.32 c -2.133,0 -4.12,-0.36 -5.96,-1.08 -1.813,-0.72 -3.387,-1.72 -4.72,-3 -1.333,-1.307 -2.373,-2.827 -3.12,-4.56 -0.747,-1.733 -1.12,-3.627 -1.12,-5.68 0,-2.053 0.373,-3.947 1.12,-5.68 0.747,-1.733 1.787,-3.24 3.12,-4.52 1.333,-1.307 2.907,-2.32 4.72,-3.04 1.813,-0.72 3.8,-1.08 5.96,-1.08 2.133,0 4.093,0.36 5.88,1.08 1.813,0.693 3.387,1.693 4.72,3 1.36,1.28 2.4,2.787 3.12,4.52 0.747,1.733 1.12,3.64 1.12,5.72 0,2.08 -0.373,3.987 -1.12,5.72 -0.72,1.733 -1.76,3.253 -3.12,4.56 -1.333,1.28 -2.907,2.28 -4.72,3 -1.787,0.693 -3.747,1.04 -5.88,1.04 z m 0,-3.56 c 1.547,0 2.973,-0.267 4.28,-0.8 1.333,-0.533 2.48,-1.28 3.44,-2.24 0.987,-0.987 1.747,-2.133 2.28,-3.44 0.56,-1.307 0.84,-2.733 0.84,-4.28 0,-1.547 -0.28,-2.973 -0.84,-4.28 -0.533,-1.307 -1.293,-2.44 -2.28,-3.4 -0.96,-0.987 -2.107,-1.747 -3.44,-2.28 -1.307,-0.533 -2.733,-0.8 -4.28,-0.8 -1.573,0 -3.027,0.267 -4.36,0.8 -1.307,0.533 -2.453,1.293 -3.44,2.28 -0.987,0.96 -1.76,2.093 -2.32,3.4 -0.533,1.307 -0.8,2.733 -0.8,4.28 0,1.547 0.267,2.973 0.8,4.28 0.56,1.307 1.333,2.453 2.32,3.44 0.987,0.96 2.133,1.707 3.44,2.24 1.333,0.533 2.787,0.8 4.36,0.8 z m 37.114,3.56 c -2.134,0 -4.174,-0.32 -6.12,-0.96 -1.947,-0.667 -3.48,-1.52 -4.6,-2.56 l 1.48,-3.12 c 1.066,0.933 2.426,1.707 4.08,2.32 1.653,0.613 3.373,0.92 5.16,0.92 1.626,0 2.946,-0.187 3.96,-0.56 1.013,-0.373 1.76,-0.88 2.24,-1.52 0.48,-0.667 0.72,-1.413 0.72,-2.24 0,-0.96 -0.32,-1.733 -0.96,-2.32 -0.614,-0.587 -1.427,-1.053 -2.44,-1.4 -0.987,-0.373 -2.08,-0.693 -3.28,-0.96 -1.2,-0.267 -2.414,-0.573 -3.64,-0.92 -1.2,-0.373 -2.307,-0.84 -3.32,-1.4 -0.987,-0.56 -1.787,-1.307 -2.4,-2.24 -0.614,-0.96 -0.92,-2.187 -0.92,-3.68 0,-1.44 0.373,-2.76 1.12,-3.96 0.773,-1.227 1.946,-2.2 3.52,-2.92 1.6,-0.747 3.626,-1.12 6.08,-1.12 1.626,0 3.24,0.213 4.84,0.64 1.6,0.427 2.986,1.04 4.16,1.84 l -1.32,3.2 c -1.2,-0.8 -2.467,-1.373 -3.8,-1.72 -1.334,-0.373 -2.627,-0.56 -3.88,-0.56 -1.574,0 -2.867,0.2 -3.88,0.6 -1.014,0.4 -1.76,0.933 -2.24,1.6 -0.454,0.667 -0.68,1.413 -0.68,2.24 0,0.987 0.306,1.773 0.92,2.36 0.64,0.587 1.453,1.053 2.44,1.4 1.013,0.347 2.12,0.667 3.32,0.96 1.2,0.267 2.4,0.573 3.6,0.92 1.226,0.347 2.333,0.8 3.32,1.36 1.013,0.56 1.826,1.307 2.44,2.24 0.613,0.933 0.92,2.133 0.92,3.6 0,1.413 -0.387,2.733 -1.16,3.96 -0.774,1.2 -1.974,2.173 -3.6,2.92 -1.6,0.72 -3.627,1.08 -6.08,1.08 z m -1.32,-30.6 -5.32,-5.2 h 3.48 l 5.28,4.36 h -3.2 l 5.28,-4.36 h 3.48 l -5.32,5.2 z M 295.763,196 v -28 h 4 v 28 z m 32.902,0.32 c -2.133,0 -4.106,-0.347 -5.92,-1.04 -1.786,-0.72 -3.346,-1.72 -4.68,-3 -1.306,-1.307 -2.333,-2.827 -3.08,-4.56 -0.746,-1.733 -1.12,-3.64 -1.12,-5.72 0,-2.08 0.374,-3.987 1.12,-5.72 0.747,-1.733 1.787,-3.24 3.12,-4.52 1.334,-1.307 2.894,-2.307 4.68,-3 1.814,-0.72 3.787,-1.08 5.92,-1.08 2.16,0 4.147,0.373 5.96,1.12 1.84,0.72 3.4,1.8 4.68,3.24 l -2.6,2.52 c -1.066,-1.12 -2.266,-1.947 -3.6,-2.48 -1.333,-0.56 -2.76,-0.84 -4.28,-0.84 -1.573,0 -3.04,0.267 -4.4,0.8 -1.333,0.533 -2.493,1.28 -3.48,2.24 -0.986,0.96 -1.76,2.107 -2.32,3.44 -0.533,1.307 -0.8,2.733 -0.8,4.28 0,1.547 0.267,2.987 0.8,4.32 0.56,1.307 1.334,2.44 2.32,3.4 0.987,0.96 2.147,1.707 3.48,2.24 1.36,0.533 2.827,0.8 4.4,0.8 1.52,0 2.947,-0.267 4.28,-0.8 1.334,-0.56 2.534,-1.413 3.6,-2.56 l 2.6,2.52 c -1.28,1.44 -2.84,2.533 -4.68,3.28 -1.813,0.747 -3.813,1.12 -6,1.12 z m 28.027,-16.24 h 14.4 v 3.4 h -14.4 z m 0.36,12.44 h 16.32 V 196 h -20.32 v -28 h 19.76 v 3.48 h -15.76 z m 29.107,9.4 2,-8.08 0.52,2.32 c -0.773,0 -1.427,-0.24 -1.96,-0.72 -0.507,-0.48 -0.76,-1.133 -0.76,-1.96 0,-0.8 0.253,-1.453 0.76,-1.96 0.533,-0.507 1.173,-0.76 1.92,-0.76 0.773,0 1.4,0.267 1.88,0.8 0.48,0.507 0.72,1.147 0.72,1.92 0,0.267 -0.027,0.533 -0.08,0.8 -0.027,0.24 -0.093,0.533 -0.2,0.88 -0.08,0.32 -0.213,0.72 -0.4,1.2 l -1.88,5.56 z m 33.645,-5.92 12.68,-28 h 3.96 l 12.72,28 h -4.2 l -11.32,-25.76 h 1.6 L 423.924,196 Z m 5.4,-7 1.08,-3.2 h 15.76 l 1.16,3.2 z m 37.825,7.24 c -0.747,0 -1.387,-0.253 -1.92,-0.76 -0.534,-0.533 -0.8,-1.2 -0.8,-2 0,-0.8 0.266,-1.453 0.8,-1.96 0.533,-0.507 1.173,-0.76 1.92,-0.76 0.72,0 1.333,0.253 1.84,0.76 0.533,0.507 0.8,1.16 0.8,1.96 0,0.8 -0.267,1.467 -0.8,2 -0.507,0.507 -1.12,0.76 -1.84,0.76 z m 25.253,0.08 c -2.133,0 -4.173,-0.32 -6.12,-0.96 -1.947,-0.667 -3.48,-1.52 -4.6,-2.56 l 1.48,-3.12 c 1.067,0.933 2.427,1.707 4.08,2.32 1.653,0.613 3.373,0.92 5.16,0.92 1.627,0 2.947,-0.187 3.96,-0.56 1.013,-0.373 1.76,-0.88 2.24,-1.52 0.48,-0.667 0.72,-1.413 0.72,-2.24 0,-0.96 -0.32,-1.733 -0.96,-2.32 -0.613,-0.587 -1.427,-1.053 -2.44,-1.4 -0.987,-0.373 -2.08,-0.693 -3.28,-0.96 -1.2,-0.267 -2.413,-0.573 -3.64,-0.92 -1.2,-0.373 -2.307,-0.84 -3.32,-1.4 -0.987,-0.56 -1.787,-1.307 -2.4,-2.24 -0.613,-0.96 -0.92,-2.187 -0.92,-3.68 0,-1.44 0.373,-2.76 1.12,-3.96 0.773,-1.227 1.947,-2.2 3.52,-2.92 1.6,-0.747 3.627,-1.12 6.08,-1.12 1.627,0 3.24,0.213 4.84,0.64 1.6,0.427 2.987,1.04 4.16,1.84 l -1.32,3.2 c -1.2,-0.8 -2.467,-1.373 -3.8,-1.72 -1.333,-0.373 -2.627,-0.56 -3.88,-0.56 -1.573,0 -2.867,0.2 -3.88,0.6 -1.013,0.4 -1.76,0.933 -2.24,1.6 -0.453,0.667 -0.68,1.413 -0.68,2.24 0,0.987 0.307,1.773 0.92,2.36 0.64,0.587 1.453,1.053 2.44,1.4 1.013,0.347 2.12,0.667 3.32,0.96 1.2,0.267 2.4,0.573 3.6,0.92 1.227,0.347 2.333,0.8 3.32,1.36 1.013,0.56 1.827,1.307 2.44,2.24 0.613,0.933 0.92,2.133 0.92,3.6 0,1.413 -0.387,2.733 -1.16,3.96 -0.773,1.2 -1.973,2.173 -3.6,2.92 -1.6,0.72 -3.627,1.08 -6.08,1.08 z m 25.825,-0.08 c -0.747,0 -1.387,-0.253 -1.92,-0.76 -0.533,-0.533 -0.8,-1.2 -0.8,-2 0,-0.8 0.267,-1.453 0.8,-1.96 0.533,-0.507 1.173,-0.76 1.92,-0.76 0.72,0 1.333,0.253 1.84,0.76 0.533,0.507 0.8,1.16 0.8,1.96 0,0.8 -0.267,1.467 -0.8,2 -0.507,0.507 -1.12,0.76 -1.84,0.76 z"
         fill="#f3f3f3"
         id="path824"
         style="fill:#404040" />
      <path
         d="M 8.33329,142 V 44 H 59.9933 c 6.44,0 12.1333,1.4 17.08,4.2 5.04,2.7067 9.0067,6.44 11.9,11.2 2.8933,4.76 4.34,10.22 4.34,16.38 0,5.88 -1.4467,11.2 -4.34,15.96 -2.8933,4.6667 -6.86,8.353 -11.9,11.06 -5.04,2.707 -10.7333,4.06 -17.08,4.06 h -27.58 V 142 Z M 32.4133,86.98 h 24.78 c 3.5467,0 6.3933,-1.0267 8.54,-3.08 2.1467,-2.0533 3.22,-4.7133 3.22,-7.98 0,-3.36 -1.0733,-6.0667 -3.22,-8.12 -2.1467,-2.1467 -4.9933,-3.22 -8.54,-3.22 h -24.78 z M 108.477,142 V 44 h 50.12 c 6.72,0 12.693,1.3533 17.92,4.06 5.227,2.6133 9.287,6.3 12.18,11.06 2.987,4.6667 4.48,10.0333 4.48,16.1 0,6.16 -1.68,11.6667 -5.04,16.52 -3.36,4.8533 -7.793,8.54 -13.3,11.06 l 21.42,39.2 h -26.88 l -18.48,-35.7 h -18.34 V 142 Z m 24.08,-55.3 h 23.8 c 3.733,0 6.72,-1.0267 8.96,-3.08 2.333,-2.0533 3.5,-4.7133 3.5,-7.98 0,-3.2667 -1.167,-5.9267 -3.5,-7.98 -2.24,-2.0533 -5.227,-3.08 -8.96,-3.08 h -23.8 z m 124.65,56.84 c -7.373,0 -14.233,-1.26 -20.58,-3.78 -6.346,-2.613 -11.9,-6.207 -16.66,-10.78 -4.76,-4.667 -8.493,-10.033 -11.2,-16.1 -2.613,-6.16 -3.92,-12.787 -3.92,-19.88 0,-7.0933 1.307,-13.6733 3.92,-19.74 2.707,-6.16 6.44,-11.5267 11.2,-16.1 4.76,-4.6667 10.314,-8.26 16.66,-10.78 6.347,-2.6133 13.207,-3.92 20.58,-3.92 7.374,0 14.234,1.3067 20.58,3.92 6.347,2.52 11.9,6.1133 16.66,10.78 4.76,4.5733 8.447,9.94 11.06,16.1 2.707,6.0667 4.06,12.6467 4.06,19.74 0,7.093 -1.353,13.72 -4.06,19.88 -2.613,6.067 -6.3,11.433 -11.06,16.1 -4.76,4.573 -10.313,8.167 -16.66,10.78 -6.346,2.52 -13.206,3.78 -20.58,3.78 z m 0,-22.12 c 3.92,0 7.56,-0.7 10.92,-2.1 3.36,-1.493 6.254,-3.5 8.68,-6.02 2.52,-2.52 4.48,-5.507 5.88,-8.96 1.4,-3.547 2.1,-7.3267 2.1,-11.34 0,-4.1067 -0.7,-7.8867 -2.1,-11.34 -1.4,-3.4533 -3.36,-6.44 -5.88,-8.96 -2.426,-2.52 -5.32,-4.48 -8.68,-5.88 -3.36,-1.4933 -7,-2.24 -10.92,-2.24 -3.92,0 -7.56,0.7467 -10.92,2.24 -3.36,1.4 -6.3,3.36 -8.82,5.88 -2.426,2.52 -4.34,5.5067 -5.74,8.96 -1.4,3.4533 -2.1,7.2333 -2.1,11.34 0,4.0133 0.7,7.793 2.1,11.34 1.4,3.453 3.314,6.44 5.74,8.96 2.52,2.52 5.46,4.527 8.82,6.02 3.36,1.4 7,2.1 10.92,2.1 z m 102.964,21.98 c -7.84,0 -15.4,-1.54 -22.68,-4.62 -7.28,-3.08 -13.72,-7.42 -19.32,-13.02 l 8.96,-10.36 c 5.32,5.227 10.733,9.1 16.24,11.62 5.6,2.52 11.433,3.78 17.5,3.78 4.76,0 8.913,-0.653 12.46,-1.96 3.64,-1.4 6.44,-3.36 8.4,-5.88 1.96,-2.52 2.94,-5.367 2.94,-8.54 0,-4.387 -1.54,-7.747 -4.62,-10.08 -3.08,-2.333 -8.167,-4.107 -15.26,-5.32 l -16.38,-2.66 c -8.96,-1.5867 -15.68,-4.48 -20.16,-8.68 -4.387,-4.2 -6.58,-9.8 -6.58,-16.8 0,-5.6 1.493,-10.5 4.48,-14.7 2.986,-4.2933 7.186,-7.6067 12.6,-9.94 5.506,-2.3333 11.853,-3.5 19.04,-3.5 7.093,0 14.046,1.1667 20.86,3.5 6.906,2.24 13.113,5.5067 18.62,9.8 l -8.12,11.2 C 378.604,59.2133 367.917,55.2 357.091,55.2 c -4.294,0 -8.027,0.6067 -11.2,1.82 -3.174,1.2133 -5.647,2.94 -7.42,5.18 -1.774,2.1467 -2.66,4.6667 -2.66,7.56 0,4.0133 1.353,7.0933 4.06,9.24 2.706,2.0533 7.186,3.5467 13.44,4.48 l 15.82,2.66 c 10.36,1.68 17.966,4.7133 22.82,9.1 4.853,4.3867 7.28,10.407 7.28,18.06 0,5.973 -1.634,11.247 -4.9,15.82 -3.267,4.48 -7.84,7.98 -13.72,10.5 -5.88,2.52 -12.694,3.78 -20.44,3.78 z m 102.239,0.14 c -7.093,0 -13.72,-1.26 -19.88,-3.78 -6.16,-2.613 -11.62,-6.207 -16.38,-10.78 -4.666,-4.667 -8.306,-10.033 -10.92,-16.1 -2.52,-6.16 -3.78,-12.787 -3.78,-19.88 0,-7.0933 1.26,-13.6733 3.78,-19.74 2.614,-6.16 6.254,-11.5267 10.92,-16.1 4.76,-4.6667 10.22,-8.26 16.38,-10.78 6.16,-2.6133 12.787,-3.92 19.88,-3.92 7.094,0 13.72,1.3067 19.88,3.92 6.254,2.52 11.714,6.1133 16.38,10.78 4.667,4.5733 8.307,9.94 10.92,16.1 2.614,6.0667 3.92,12.6467 3.92,19.74 0,7.093 -1.306,13.72 -3.92,19.88 -2.613,6.067 -6.253,11.433 -10.92,16.1 -4.666,4.573 -10.126,8.167 -16.38,10.78 -6.16,2.52 -12.786,3.78 -19.88,3.78 z m 0.14,-13.58 c 5.04,0 9.707,-0.933 14,-2.8 4.387,-1.867 8.214,-4.433 11.48,-7.7 3.267,-3.36 5.834,-7.28 7.7,-11.76 1.867,-4.573 2.8,-9.4733 2.8,-14.7 0,-5.32 -0.933,-10.22 -2.8,-14.7 -1.866,-4.48 -4.433,-8.3533 -7.7,-11.62 -3.266,-3.36 -7.093,-5.9733 -11.48,-7.84 -4.293,-1.8667 -8.96,-2.8 -14,-2.8 -5.133,0 -9.893,0.9333 -14.28,2.8 -4.386,1.8667 -8.213,4.48 -11.48,7.84 -3.266,3.2667 -5.833,7.14 -7.7,11.62 -1.773,4.48 -2.66,9.38 -2.66,14.7 0,5.2267 0.887,10.127 2.66,14.7 1.867,4.48 4.434,8.4 7.7,11.76 3.267,3.267 7.094,5.833 11.48,7.7 4.387,1.867 9.147,2.8 14.28,2.8 z M 531.79,142 V 44 h 72.52 v 12.88 h -57.82 v 30.1 h 38.08 V 99.44 H 546.49 V 142 Z m 116.496,0 V 57.02 h -34.44 V 44 h 83.58 v 13.02 h -34.44 V 142 Z"
         fill="#f3f3f3"
         id="path826"
         style="fill:#404040" />
    </g>
  </g>
</svg>
